<svg id="Layer_1" data-name="Layer 1" xmlns="http://www.w3.org/2000/svg" viewBox="0 0 1435.48 546.38"><defs><style>.cls-1{fill:#fff;}</style></defs><path class="cls-1" d="M175.43,204.17,105.1,280.91l70.33,76.74H117.49L62.66,297.82v59.83H15.3V204.17H62.66V264l54.83-59.82Z"/><path class="cls-1" d="M198.71,357.64V204.17h47.35V357.64Z"/><path class="cls-1" d="M269.39,204.17H422.87V230.3H369.81V357.65H322.46V230.3H269.39Z"/><path class="cls-1" d="M219.28,387.09H326.93V413.2H245.81c-7.42,0-13.46,7.24-13.46,16.14v21.4h53.06v26.14H232.35v37.54h94.58v26.13H185V426.66C185,404.84,200.37,387.09,219.28,387.09Z"/><path class="cls-1" d="M507.05,230.28h81.13V204.19H480.52c-18.92,0-34.31,17.74-34.31,39.57V357.65h142l-11.93-26.14H493.6V294h53V267.82h-53V246.44C493.6,237.53,499.62,230.28,507.05,230.28Z"/><path class="cls-1" d="M456.39,387.08h47.35V540.56H457.53l-59.91-90.4v90.4H350.27V387.08h46.22l59.9,90.4Z"/><path class="cls-1" d="M561.37,387.09H680.56V413.2H587.9c-7.42,0-13.46,7.24-13.46,16.13v69c0,8.88,6,16.11,13.46,16.11h45.31V476.88H590.77V450.74h89.79v89.81H561.37c-18.9,0-34.28-17.76-34.28-39.6V426.66C527.09,404.84,542.47,387.09,561.37,387.09Z"/><path class="cls-1" d="M703.92,540.55V387.08h47.35V540.55Z"/><path class="cls-1" d="M880.73,387.08h47.35V540.56H881.87L822,450.16v90.4H774.6V387.08h46.22l59.91,90.4Z"/><path class="cls-1" d="M985.73,387.09h107.65V413.2h-81.12c-7.42,0-13.46,7.24-13.46,16.14v21.4h53.06v26.14H998.8v37.54h94.58v26.13h-142V426.66C951.43,404.84,966.82,387.09,985.73,387.09Z"/><path class="cls-1" d="M1151,387.09h107.65V413.2h-81.12c-7.42,0-13.46,7.24-13.46,16.14v21.4h53.06v26.14h-53.06v37.54h94.58v26.13h-142V426.66C1116.72,404.84,1132.1,387.09,1151,387.09Z"/><path class="cls-1" d="M1432.24,409.83a44.63,44.63,0,0,1,3.24,16.84v10.62c0,11.83-5.82,22-14.14,26.53,8.32,4.49,14.14,14.7,14.14,26.53v50.21h-47.35V487.69c0-6-3.66-10.81-8.16-10.81h-50.61v63.68H1282V387.08h119.18C1414.43,387.08,1426.61,396,1432.24,409.83Zm-102.88,3.38v37.54H1380c4.5,0,8.16-4.85,8.16-10.81V429.32c0-8.88-6-16.11-13.47-16.11Z"/><polygon class="cls-1" points="92.94 536.15 22.37 536.15 22.37 526 88.73 526 120.72 494.01 169.43 494.01 169.43 504.16 124.93 504.16 92.94 536.15"/><rect class="cls-1" x="46.23" y="442.95" width="123.2" height="10.16"/><path class="cls-1" d="M171.65,417.64a56,56,0,0,0-2,10.16H87.43L61.25,401.64h-39V391.48h43.2l26.15,26.16Z"/><polygon class="cls-1" points="78.3 495.27 71.12 488.09 90.94 468.26 169.43 468.26 169.43 478.42 95.15 478.42 78.3 495.27"/><path class="cls-1" d="M30.6,531.08a15.3,15.3,0,1,1-15.3-15.31A15.32,15.32,0,0,1,30.6,531.08Zm-10.15,0a5.15,5.15,0,1,0-5.15,5.14A5.16,5.16,0,0,0,20.45,531.08Z"/><path class="cls-1" d="M83.24,499.44a15.3,15.3,0,1,1-15.3-15.3A15.32,15.32,0,0,1,83.24,499.44Zm-10.15,0a5.15,5.15,0,1,0-5.15,5.15A5.15,5.15,0,0,0,73.09,499.44Z"/><path class="cls-1" d="M53,448a15.3,15.3,0,1,1-15.3-15.31A15.32,15.32,0,0,1,53,448Zm-10.15,0a5.15,5.15,0,1,0-5.15,5.14A5.16,5.16,0,0,0,42.82,448Z"/><path class="cls-1" d="M30.6,396.55a15.3,15.3,0,1,1-15.3-15.3A15.32,15.32,0,0,1,30.6,396.55Zm-10.15,0a5.15,5.15,0,1,0-5.15,5.15A5.15,5.15,0,0,0,20.45,396.55Z"/><path class="cls-1" d="M1008.4,123.94,600.16,339.4l-.22-.51,407.11-217.08a1.31,1.31,0,0,1,1.81.44A1.19,1.19,0,0,1,1008.4,123.94Z"/><path class="cls-1" d="M896.39,93.63,596,329.67l-.24-.59L894.67,91.83a1.28,1.28,0,0,1,1.86.08A1.14,1.14,0,0,1,896.39,93.63Z"/><path class="cls-1" d="M1034.42,204,604.34,349.12l-.07-.07-.19-.4v0l429.36-147a1.36,1.36,0,0,1,1.71.75A1.15,1.15,0,0,1,1034.42,204Z"/><path class="cls-1" d="M1023.61,328.69a1.2,1.2,0,0,1-1.16,1.33L607.91,357.64l-.19-.47,414.43-29.63A1.31,1.31,0,0,1,1023.61,328.69Z"/><path class="cls-1" d="M1152,106.05c-8-28.9-24-53.87-45.17-75.2-25.92-26-55.32-37.55-90-26.9-30.07,9.26-60.17,26.66-86.77,43.69-12.57,8.06-21.92,18.83-28.86,31.9-1.11,2.09-2.75,4.27-1,6.4s4.18,1.19,6.55.75a36.28,36.28,0,0,0,10.76-4.36C945,67.26,972.43,52,998.68,34.8a148.34,148.34,0,0,1,29.09-14.67c17.13-6.5,33.35-2,48.69,5.76,10.41,5.28,18.73,13.58,26.35,22.56-9.87-6-19.45-12.37-30.31-16.58-12.58-4.87-24.59-5.12-36.63,1.7-14.65,8.31-29.55,16.21-44.3,24.36-2.36,1.29-5.81,2.24-1.82,5.9,22.6,20.7,35.46,47.52,46.62,75.34a247.66,247.66,0,0,1,17.7,95.56c-.26,19.57-5.92,38.59-12.69,56.79-1.93,5.18-4,10.32-6,15.45-2.36,5.89-5.3,14-.94,19.79a9.74,9.74,0,0,0,10.38,3.55c6.17-1.76,12.24-3.82,18.45-5.41,6-1.54,12.06-2.95,18.12-4.29,62.95-13.94,76.95-120.56,76.95-120.56l-.06,0c.17-.87.38-1.73.54-2.6C1164.42,167,1160.27,135.7,1152,106.05Z"/></svg>